<svg width="116" height="125" viewBox="0 0 116 125" fill="none" xmlns="http://www.w3.org/2000/svg">
<g clip-path="url(#clip0_8_9780)">
<path d="M50.7484 116.528C45.7491 116.528 40.9545 114.39 37.4195 110.585C33.8844 106.781 31.8984 101.62 31.8984 96.2395V21.8496L63.3151 55.6632" stroke="#D4AF37" stroke-width="5" stroke-linecap="round" stroke-linejoin="round"/>
<path d="M63.3167 8.32227C68.316 8.32227 73.1106 10.4598 76.6456 14.2645C80.1807 18.0693 82.1667 23.2297 82.1667 28.6104V103L50.75 69.1867" stroke="#D4AF37" stroke-width="5" stroke-linecap="round" stroke-linejoin="round"/>
<path d="M88.4489 8.32227H25.6156C15.2051 8.32227 6.76562 17.4056 6.76562 28.6104V96.2375C6.76562 107.442 15.2051 116.526 25.6156 116.526H88.4489C98.8595 116.526 107.299 107.442 107.299 96.2375V28.6104C107.299 17.4056 98.8595 8.32227 88.4489 8.32227Z" stroke="#D4AF37" stroke-width="5" stroke-linecap="round" stroke-linejoin="round"/>
</g>
<defs>
<clipPath id="clip0_8_9780">
<rect width="116" height="124.85" fill="white"/>
</clipPath>
</defs>
</svg>
