<svg width="108" height="108" viewBox="0 0 108 108" fill="none" xmlns="http://www.w3.org/2000/svg">
<path d="M46.0999 23.0488H30.7338C26.4906 23.0488 23.0508 26.4886 23.0508 30.7319V46.0979C23.0508 50.3412 26.4906 53.781 30.7338 53.781H46.0999C50.3431 53.781 53.7829 50.3412 53.7829 46.0979V30.7319C53.7829 26.4886 50.3431 23.0488 46.0999 23.0488Z" stroke="#D4AF37" stroke-width="5" stroke-linecap="round" stroke-linejoin="round"/>
<path d="M23.0474 3.8418H11.5229C9.48521 3.8418 7.531 4.65126 6.09015 6.09211C4.6493 7.53295 3.83984 9.48716 3.83984 11.5248V23.0494" stroke="#D4AF37" stroke-width="5" stroke-linecap="round" stroke-linejoin="round"/>
<path d="M84.5117 3.8418H96.0363C98.0739 3.8418 100.028 4.65126 101.469 6.09211C102.91 7.53295 103.719 9.48716 103.719 11.5248V23.0494" stroke="#D4AF37" stroke-width="5" stroke-linecap="round" stroke-linejoin="round"/>
<path d="M23.0474 103.721H11.5229C9.48521 103.721 7.531 102.912 6.09015 101.471C4.6493 100.03 3.83984 98.0759 3.83984 96.0382V84.5137" stroke="#D4AF37" stroke-width="5" stroke-linecap="round" stroke-linejoin="round"/>
<path d="M84.5117 103.721H96.0363C98.0739 103.721 100.028 102.912 101.469 101.471C102.91 100.03 103.719 98.0759 103.719 96.0382V84.5137" stroke="#D4AF37" stroke-width="5" stroke-linecap="round" stroke-linejoin="round"/>
<path d="M23.0508 72.9883V84.5128H34.5753" stroke="#D4AF37" stroke-width="5" stroke-linecap="round" stroke-linejoin="round"/>
<path d="M53.7824 84.5128V72.9883H42.2578" stroke="#D4AF37" stroke-width="5" stroke-linecap="round" stroke-linejoin="round"/>
<path d="M84.5128 34.5734H72.9883V23.0488" stroke="#D4AF37" stroke-width="5" stroke-linecap="round" stroke-linejoin="round"/>
<path d="M84.5128 61.464V49.9395H72.9883" stroke="#D4AF37" stroke-width="5" stroke-linecap="round" stroke-linejoin="round"/>
<path d="M72.9883 72.9883V84.5128H84.5128" stroke="#D4AF37" stroke-width="5" stroke-linecap="round" stroke-linejoin="round"/>
</svg>
