<svg width="757" height="197" viewBox="0 0 757 197" fill="none" xmlns="http://www.w3.org/2000/svg">
<path d="M63.7557 85.4257L68.2013 92.5969C68.8545 93.6506 68.6328 95.0243 67.6815 95.8191L53.1572 107.953L46.6325 99.368C46.3032 98.9348 46.125 98.4057 46.125 97.8616V87.1995C46.125 86.3317 46.5769 85.5265 47.3177 85.0744L51.1432 82.74C51.6798 82.4125 52.3204 82.3002 52.9365 82.4255L62.1362 84.2979C62.8084 84.4347 63.3943 84.8427 63.7557 85.4257Z" fill="#FAF9F6"/>
<path d="M68.9375 82.013V75.1045C68.9375 74.9415 68.9575 74.7791 68.9971 74.621L69.0566 74.3831C69.2784 73.4967 70.0749 72.875 70.9886 72.875H82.7079C83.6004 72.875 84.3839 73.4688 84.6253 74.328L88.4672 88.0051C88.824 89.2755 87.8693 90.5353 86.5498 90.5353H74.3157C73.5719 90.5353 72.8901 90.1209 72.5477 89.4606L69.1611 82.9298C69.0142 82.6465 68.9375 82.3321 68.9375 82.013Z" fill="#FAF9F6"/>
<path d="M67.8776 112.713L73.5417 108.119C74.1661 107.613 74.9291 107.307 75.7305 107.243L79.2719 106.957C80.1649 106.885 81.0562 107.116 81.8017 107.613L85.7323 110.233C87.6523 111.513 88.0864 114.152 86.6776 115.979L80.4891 124.008C79.2318 125.639 76.9387 126.043 75.2 124.939L69.0155 121.014C68.3229 120.575 67.7828 119.932 67.4692 119.174L66.7061 117.33C66.0323 115.701 66.5088 113.823 67.8776 112.713Z" fill="#FAF9F6"/>
<path d="M132.806 120.836L134.092 115.501C134.289 114.685 135.12 114.191 135.931 114.408L137.811 114.912C138.464 115.087 138.918 115.679 138.918 116.355V120.451C138.918 121.858 138.546 123.24 137.838 124.456L134.883 129.536C134.616 129.996 134.124 130.279 133.592 130.279H121.828C121.038 130.279 120.385 129.665 120.337 128.878L120.114 125.27C120.067 124.509 120.602 123.834 121.354 123.706L131.605 121.959C132.194 121.858 132.666 121.417 132.806 120.836Z" fill="#FAF9F6"/>
<path d="M118.909 119.401L117.277 112.028C117.136 111.394 117.63 110.798 118.278 110.817L131.632 111.212C132.28 111.231 132.737 111.855 132.56 112.479L131.119 117.552C131.016 117.916 130.715 118.19 130.343 118.259L120.063 120.165C119.536 120.263 119.025 119.925 118.909 119.401Z" fill="#FAF9F6"/>
<path d="M106.086 102.535V100.657C106.086 98.8833 106.945 97.2196 108.39 96.1923L109.861 95.1472C110.788 94.4886 111.896 94.1348 113.033 94.1348H114.614C115.572 94.1348 116.513 94.3858 117.343 94.8629L122.084 97.5874C123.999 98.6876 125.065 100.83 124.789 103.021L124.72 103.569C124.39 106.191 122.235 108.203 119.596 108.352L112.858 108.734C111.577 108.807 110.311 108.428 109.281 107.663L108.296 106.931C106.906 105.898 106.086 104.267 106.086 102.535Z" fill="#FAF9F6"/>
<path d="M91.4261 107.63L92.0545 106.883C92.725 106.086 93.6526 105.547 94.6776 105.359L97.9171 104.766C99.3329 104.507 100.787 104.944 101.826 105.94L104.599 108.6C106.012 109.956 106.382 112.072 105.511 113.826L105.063 114.729C104.306 116.254 102.751 117.218 101.049 117.218H97.2248C96.0856 117.218 94.9892 116.784 94.1585 116.005L91.7897 113.782C90.0541 112.153 89.8945 109.452 91.4261 107.63Z" fill="#FAF9F6"/>
<path d="M103.006 82.7068L105.155 82.5069C106.702 82.363 108.002 83.6557 107.866 85.2034L107.205 92.7356C107.118 93.7193 106.459 94.559 105.523 94.8758L102.526 95.8909C101.771 96.1467 100.939 96.0253 100.289 95.5645L97.5731 93.6409C97.1249 93.3234 96.7943 92.8666 96.6327 92.3417L96.0433 90.4264C95.7635 89.517 96.0264 88.5276 96.7208 87.8772L101.534 83.3687C101.938 82.9909 102.455 82.758 103.006 82.7068Z" fill="#FAF9F6"/>
<path d="M89.2869 94.6678V102.83C89.2869 103.575 88.4976 104.057 87.8349 103.715L72.4661 95.7946C71.5453 95.3201 71.8709 93.93 72.9066 93.9137L88.2754 93.6721C88.8314 93.6634 89.2869 94.1117 89.2869 94.6678Z" fill="#FAF9F6"/>
<path d="M70.1172 104.697L66.2405 108.126C65.7894 108.525 65.0902 108.436 64.7543 107.936L63.3585 105.86C63.0555 105.409 63.1697 104.798 63.6153 104.487L69.7148 100.233C70.0597 99.9925 70.5185 99.9945 70.8612 100.238L73.357 102.011C74.0409 102.497 73.8541 103.559 73.0454 103.783L70.5118 104.483C70.3657 104.523 70.2308 104.597 70.1172 104.697Z" fill="#FAF9F6"/>
<path d="M101.219 130.075L90.0644 122.901C87.4489 121.219 83.9743 122.849 83.5953 125.936C83.4949 126.754 83.6363 127.583 84.0022 128.322L90.3493 141.136C91.0929 142.637 92.5415 143.664 94.2042 143.868L102.843 144.929C104.387 145.118 105.931 144.575 107.017 143.46L108.98 141.444C109.74 140.664 110.222 139.657 110.355 138.577L110.526 137.181C110.833 134.687 109.233 132.356 106.796 131.744L102.701 130.717C102.175 130.585 101.675 130.368 101.219 130.075Z" fill="#FAF9F6"/>
<path d="M106.64 120.525H96.1112C95.628 120.525 95.428 121.144 95.8198 121.427L107.7 130C108.124 130.306 108.634 130.471 109.157 130.471H112.187C113.562 130.471 114.676 129.356 114.676 127.981V126.631C114.676 125.789 114.251 125.005 113.546 124.545L108 120.929C107.595 120.666 107.123 120.525 106.64 120.525Z" fill="#FAF9F6"/>
<path d="M113.734 110.893H109.271C108.996 110.893 108.773 111.115 108.773 111.39V115.6C108.773 115.898 108.907 116.181 109.139 116.37L111.782 118.534C112.112 118.803 112.577 118.834 112.939 118.609L114.26 117.788C114.552 117.606 114.73 117.286 114.73 116.942V111.888C114.73 111.338 114.284 110.893 113.734 110.893Z" fill="#FAF9F6"/>
<path d="M141.594 88.2236L128.121 100.101C126.663 101.387 126.801 103.7 128.402 104.803L137.146 110.824C137.976 111.396 138.961 111.702 139.97 111.702H144.887C147.637 111.702 149.866 109.473 149.866 106.723V91.9585C149.866 87.6721 144.81 85.389 141.594 88.2236Z" fill="#FAF9F6"/>
<path d="M107.9 74.1325L98.2762 83.0761C97.1901 84.0854 95.4682 83.9277 94.5836 82.7379L85.1741 70.0817C83.9561 68.4433 83.8616 66.2274 84.9357 64.4913L88.6116 58.5499C89.1864 57.6208 89.5179 56.5618 89.5753 55.4707C89.757 52.0174 92.6101 49.3105 96.0681 49.3105H97.2362C100.578 49.3105 103.226 52.1314 103.016 55.4666C102.947 56.5558 103.187 57.6423 103.709 58.6008L108.883 68.1044C109.971 70.1025 109.566 72.5838 107.9 74.1325Z" fill="#FAF9F6"/>
<path d="M125.224 78.189L124.746 82.5502C124.269 86.9035 120.86 90.3569 116.513 90.8906C114.139 91.1821 111.922 89.6515 111.354 87.3281L110.555 84.0654C110.116 82.2707 110.185 80.3892 110.754 78.6314L111.826 75.3177C112.958 71.8222 116.634 69.8306 120.18 70.7919C123.453 71.6794 125.593 74.8177 125.224 78.189Z" fill="#FAF9F6"/>
<path d="M125.567 87.488L126.978 85.5058C128.432 83.4646 131.325 83.1132 133.226 84.747C134.464 85.8113 134.984 87.4895 134.566 89.0677L134.252 90.2565C134.089 90.8718 133.832 91.4585 133.491 91.9961L132.221 93.9994C130.912 96.0642 128.421 97.0499 126.053 96.4401C124.648 96.0783 123.747 94.7094 123.97 93.2759L124.442 90.2504C124.597 89.2547 124.982 88.3088 125.567 87.488Z" fill="#FAF9F6"/>
<ellipse cx="96.674" cy="40.6461" rx="6.40835" ry="5.7125" fill="#FAF9F6"/>
<ellipse cx="96.9459" cy="21.1114" rx="4.6959" ry="4.54302" fill="#FAF9F6"/>
<ellipse cx="96.5791" cy="4.18814" rx="4.32908" ry="4.18814" fill="#FAF9F6"/>
<circle cx="133.341" cy="22.9782" r="5.27895" fill="#FAF9F6"/>
<circle cx="123.242" cy="56.8706" r="8.01515" fill="#FAF9F6"/>
<ellipse cx="136.734" cy="76.0996" rx="6.60109" ry="5.60542" fill="#FAF9F6"/>
<ellipse cx="154.764" cy="65.748" rx="3.81126" ry="4.11713" fill="#FAF9F6"/>
<ellipse cx="164.983" cy="45.9182" rx="3.81126" ry="3.3928" fill="#FAF9F6"/>
<ellipse cx="156.56" cy="99.3047" rx="3.49772" ry="3.49811" fill="#FAF9F6"/>
<ellipse cx="170.463" cy="98.7361" rx="5.94737" ry="5.72827" fill="#FAF9F6"/>
<ellipse cx="190.263" cy="98.4749" rx="6.34085" ry="5.99051" fill="#FAF9F6"/>
<ellipse cx="164.501" cy="117.708" rx="4.282" ry="3.76657" fill="#FAF9F6"/>
<ellipse cx="158.209" cy="144.231" rx="6.29466" ry="5.83057" fill="#FAF9F6"/>
<ellipse cx="143.44" cy="131.688" rx="3.61141" ry="2.88942" fill="#FAF9F6"/>
<ellipse cx="124.529" cy="143.355" rx="4.95082" ry="4.64383" fill="#FAF9F6"/>
<ellipse cx="132.115" cy="169.874" rx="4.07594" ry="4.74697" fill="#FAF9F6"/>
<ellipse cx="97.6045" cy="155.67" rx="7.01854" ry="6.65799" fill="#FAF9F6"/>
<ellipse cx="97.6551" cy="174.27" rx="5.99889" ry="5.57833" fill="#FAF9F6"/>
<ellipse cx="97.4658" cy="191.542" rx="5.45798" ry="5.45825" fill="#FAF9F6"/>
<ellipse cx="69.5941" cy="156.691" rx="5.75819" ry="5.63834" fill="#FAF9F6"/>
<ellipse cx="72.1067" cy="135.398" rx="5.27856" ry="4.8585" fill="#FAF9F6"/>
<ellipse cx="60.9454" cy="113.446" rx="3.71888" ry="3.41901" fill="#FAF9F6"/>
<ellipse cx="50.0524" cy="121.904" rx="3.9587" ry="4.19879" fill="#FAF9F6"/>
<ellipse cx="33.3566" cy="134.32" rx="6.95814" ry="6.65799" fill="#FAF9F6"/>
<ellipse cx="39.4837" cy="97.6707" rx="4.67903" ry="4.67853" fill="#FAF9F6"/>
<ellipse cx="21.762" cy="98.0928" rx="4.73854" ry="4.67869" fill="#FAF9F6"/>
<ellipse cx="3.9587" cy="98.0868" rx="3.9587" ry="4.25863" fill="#FAF9F6"/>
<ellipse cx="61.8506" cy="76.3705" rx="3.97557" ry="3.51499" fill="#FAF9F6"/>
<ellipse cx="48.8015" cy="68.9361" rx="3.91873" ry="3.91851" fill="#FAF9F6"/>
<ellipse cx="30.3977" cy="57.1845" rx="7.2024" ry="6.91501" fill="#FAF9F6"/>
<ellipse cx="66.253" cy="45.7886" rx="4.95614" ry="4.55229" fill="#FAF9F6"/>
<ellipse cx="68.0407" cy="22.3941" rx="4.32197" ry="4.43705" fill="#FAF9F6"/>
<ellipse cx="96.5388" cy="99.562" rx="3.96847" ry="3.76712" fill="#FAF9F6"/>
<ellipse cx="73.4694" cy="62.6538" rx="3.96936" ry="3.09326" fill="#FAF9F6"/>
<path d="M271.008 139.972C265.201 139.972 259.752 138.899 254.661 136.751C249.65 134.524 245.235 131.461 241.417 127.563C237.678 123.666 234.735 119.132 232.587 113.961C230.44 108.791 229.366 103.223 229.366 97.2568C229.366 91.2909 230.44 85.7625 232.587 80.6716C234.735 75.5012 237.718 70.9671 241.536 67.0694C245.354 63.1717 249.809 60.149 254.9 58.0013C260.07 55.8535 265.678 54.7797 271.723 54.7797C278.326 54.7797 284.411 56.0524 289.979 58.5979C295.547 61.1433 300.201 64.8024 303.939 69.5751L296.184 77.3307C293.559 73.5126 290.098 70.6092 285.803 68.6205C281.508 66.5524 276.814 65.5183 271.723 65.5183C265.678 65.5183 260.309 66.8705 255.616 69.5751C251.002 72.2796 247.383 76.0182 244.758 80.7909C242.212 85.5636 240.94 91.0522 240.94 97.2568C240.94 103.541 242.252 109.069 244.877 113.842C247.502 118.615 251.042 122.353 255.496 125.058C259.951 127.762 265.042 129.115 270.769 129.115C276.576 129.115 281.587 128.001 285.803 125.774C290.098 123.546 293.4 120.285 295.706 115.99C298.013 111.615 299.167 106.285 299.167 100.001L305.968 104.893H270.172V94.6318H310.74V96.3022C310.74 105.927 309.03 114.001 305.61 120.524C302.269 126.967 297.576 131.819 291.53 135.08C285.564 138.342 278.723 139.972 271.008 139.972ZM323.917 138.779V53.5865H334.656V138.779H323.917ZM350.487 138.779V82.1034H361.226V138.779H350.487ZM355.856 70.7682C353.868 70.7682 352.237 70.1319 350.964 68.8592C349.692 67.5069 349.055 65.8365 349.055 63.8478C349.055 61.9387 349.692 60.3478 350.964 59.0751C352.237 57.7229 353.868 57.0467 355.856 57.0467C357.845 57.0467 359.476 57.7229 360.748 59.0751C362.021 60.3478 362.658 61.9387 362.658 63.8478C362.658 65.8365 362.021 67.5069 360.748 68.8592C359.476 70.1319 357.845 70.7682 355.856 70.7682ZM417.142 138.779V105.728C417.142 101.433 415.79 97.8931 413.085 95.109C410.381 92.325 406.881 90.9329 402.585 90.9329C399.721 90.9329 397.176 91.5693 394.949 92.842C392.722 94.1147 390.972 95.8647 389.699 98.092C388.426 100.319 387.79 102.865 387.79 105.728L383.375 103.223C383.375 98.9272 384.33 95.109 386.239 91.7682C388.148 88.4273 390.812 85.8023 394.233 83.8932C397.653 81.9046 401.511 80.9102 405.807 80.9102C410.102 80.9102 413.881 81.9841 417.142 84.1318C420.483 86.2795 423.108 89.1034 425.017 92.6034C426.926 96.0238 427.88 99.6829 427.88 103.581V138.779H417.142ZM377.051 138.779V82.1034H387.79V138.779H377.051ZM450.431 138.779V58.3592H461.169V138.779H450.431ZM436.47 91.8875V82.1034H475.129V91.8875H436.47ZM512.377 138.779V55.9729H523.593V138.779H512.377ZM520.013 138.779V128.518H564.399V138.779H520.013ZM597.957 139.972C592.787 139.972 588.094 138.7 583.878 136.154C579.662 133.529 576.321 129.99 573.855 125.535C571.469 121.081 570.276 116.069 570.276 110.501C570.276 104.933 571.469 99.9215 573.855 95.467C576.321 91.0125 579.622 87.4727 583.759 84.8477C587.975 82.2227 592.707 80.9102 597.957 80.9102C602.253 80.9102 606.071 81.825 609.412 83.6546C612.832 85.4045 615.577 87.8704 617.645 91.0522C619.713 94.1545 620.866 97.7738 621.105 101.91V118.973C620.866 123.029 619.713 126.649 617.645 129.83C615.656 133.012 612.952 135.518 609.531 137.347C606.19 139.097 602.332 139.972 597.957 139.972ZM599.747 129.83C605.077 129.83 609.372 128.041 612.634 124.461C615.895 120.802 617.526 116.149 617.526 110.501C617.526 106.603 616.77 103.223 615.258 100.359C613.827 97.4159 611.759 95.1488 609.054 93.5579C606.349 91.8875 603.207 91.0522 599.628 91.0522C596.048 91.0522 592.867 91.8875 590.082 93.5579C587.378 95.2284 585.23 97.5352 583.639 100.478C582.128 103.342 581.372 106.643 581.372 110.382C581.372 114.2 582.128 117.581 583.639 120.524C585.23 123.387 587.418 125.654 590.202 127.325C592.986 128.995 596.168 129.83 599.747 129.83ZM616.81 138.779V123.507L618.838 109.666L616.81 95.9443V82.1034H627.668V138.779H616.81ZM673.131 139.972C668.836 139.972 664.938 139.097 661.438 137.347C658.018 135.518 655.273 133.012 653.205 129.83C651.137 126.649 649.984 123.029 649.745 118.973V101.91C649.984 97.7738 651.137 94.1545 653.205 91.0522C655.353 87.8704 658.137 85.4045 661.557 83.6546C665.057 81.825 668.915 80.9102 673.131 80.9102C678.302 80.9102 682.955 82.2227 687.091 84.8477C691.307 87.4727 694.608 91.0125 696.995 95.467C699.381 99.9215 700.574 104.933 700.574 110.501C700.574 116.069 699.381 121.081 696.995 125.535C694.608 129.99 691.307 133.529 687.091 136.154C682.955 138.7 678.302 139.972 673.131 139.972ZM643.302 138.779V53.5865H654.04V95.9443L652.012 109.666L654.04 123.507V138.779H643.302ZM671.342 129.83C674.921 129.83 678.063 128.995 680.768 127.325C683.472 125.654 685.62 123.387 687.211 120.524C688.802 117.581 689.597 114.2 689.597 110.382C689.597 106.643 688.802 103.302 687.211 100.359C685.62 97.4159 683.472 95.1488 680.768 93.5579C678.063 91.8875 674.961 91.0522 671.461 91.0522C667.881 91.0522 664.739 91.8875 662.035 93.5579C659.33 95.1488 657.222 97.4159 655.711 100.359C654.2 103.302 653.444 106.683 653.444 110.501C653.444 114.24 654.16 117.581 655.592 120.524C657.103 123.387 659.211 125.654 661.915 127.325C664.7 128.995 667.842 129.83 671.342 129.83ZM730.765 139.972C727.584 139.972 724.561 139.575 721.697 138.779C718.913 137.904 716.328 136.711 713.942 135.2C711.555 133.609 709.487 131.74 707.737 129.592L714.658 122.671C716.726 125.217 719.112 127.126 721.817 128.399C724.521 129.592 727.544 130.188 730.885 130.188C734.226 130.188 736.811 129.632 738.64 128.518C740.47 127.325 741.385 125.694 741.385 123.626C741.385 121.558 740.629 119.967 739.118 118.853C737.686 117.66 735.817 116.706 733.51 115.99C731.203 115.194 728.737 114.439 726.112 113.723C723.567 112.927 721.14 111.933 718.834 110.74C716.527 109.546 714.618 107.916 713.106 105.848C711.675 103.779 710.959 101.035 710.959 97.6147C710.959 94.1943 711.794 91.2511 713.464 88.7852C715.135 86.2398 717.442 84.2909 720.385 82.9386C723.408 81.5864 727.027 80.9102 731.243 80.9102C735.697 80.9102 739.635 81.7057 743.055 83.2966C746.555 84.808 749.419 87.1148 751.646 90.217L744.726 97.1374C743.135 95.0693 741.146 93.4784 738.76 92.3647C736.453 91.2511 733.828 90.6943 730.885 90.6943C727.782 90.6943 725.396 91.2511 723.726 92.3647C722.135 93.3988 721.339 94.8704 721.339 96.7795C721.339 98.6886 722.055 100.16 723.487 101.194C724.919 102.228 726.788 103.103 729.095 103.819C731.481 104.535 733.947 105.291 736.493 106.086C739.038 106.802 741.464 107.796 743.771 109.069C746.078 110.342 747.947 112.052 749.379 114.2C750.89 116.348 751.646 119.171 751.646 122.671C751.646 128.001 749.737 132.217 745.919 135.319C742.18 138.421 737.129 139.972 730.765 139.972Z" fill="#FAF9F6"/>
</svg>
